<svg width="16" height="16" viewBox="0 0 16 16" fill="none" xmlns="http://www.w3.org/2000/svg">
<path fill-rule="evenodd" clip-rule="evenodd" d="M5.99998 5.33337C6.92045 5.33337 7.66665 4.43794 7.66665 3.33337C7.66665 2.2288 6.92045 1.33337 5.99998 1.33337C5.0795 1.33337 4.33331 2.2288 4.33331 3.33337C4.33331 4.43794 5.0795 5.33337 5.99998 5.33337ZM2.99998 8.66671C3.92045 8.66671 4.66665 7.77128 4.66665 6.66671C4.66665 5.56214 3.92045 4.66671 2.99998 4.66671C2.07951 4.66671 1.33331 5.56214 1.33331 6.66671C1.33331 7.77128 2.07951 8.66671 2.99998 8.66671ZM11.6666 3.33337C11.6666 4.43794 10.9205 5.33337 9.99998 5.33337C9.07951 5.33337 8.33331 4.43794 8.33331 3.33337C8.33331 2.2288 9.07951 1.33337 9.99998 1.33337C10.9205 1.33337 11.6666 2.2288 11.6666 3.33337ZM13 8.66671C13.9205 8.66671 14.6666 7.77128 14.6666 6.66671C14.6666 5.56214 13.9205 4.66671 13 4.66671C12.0795 4.66671 11.3333 5.56214 11.3333 6.66671C11.3333 7.77128 12.0795 8.66671 13 8.66671ZM11.6915 9.28861L11.6933 9.29004L11.7009 9.29602C12.4296 9.87164 13.3333 10.5855 13.3333 12.1667C13.3333 13.5467 12.2133 14.6667 10.8333 14.6667C10.2066 14.6667 9.65998 14.37 9.17665 14.1067C8.76331 13.88 8.37331 13.6667 7.99998 13.6667C7.62665 13.6667 7.23665 13.88 6.82331 14.1067C6.33998 14.37 5.79331 14.6667 5.16665 14.6667C3.78665 14.6667 2.66665 13.5467 2.66665 12.1667C2.66665 10.5781 3.57508 9.8646 4.30476 9.29152L4.30665 9.29004C4.31485 9.28351 4.32304 9.277 4.33122 9.27049C4.63208 9.03118 4.91457 8.80649 5.08331 8.55337C5.20467 8.37437 5.31222 8.18157 5.42607 7.97747C5.4373 7.95732 5.4486 7.93707 5.45998 7.9167C5.93331 7.06004 6.52665 5.9967 7.99998 5.9967C9.47166 5.9967 10.062 7.05765 10.5384 7.91381L10.54 7.9167C10.6666 8.14337 10.7866 8.3567 10.9166 8.55337C11.0896 8.81619 11.3822 9.0458 11.6915 9.28861Z" fill="white"/>
</svg>
