<svg width="38" height="38" viewBox="0 0 38 38" fill="none" xmlns="http://www.w3.org/2000/svg">
<rect width="38" height="38" rx="19" fill="#FF7E56"/>
<path fill-rule="evenodd" clip-rule="evenodd" d="M16.25 15.3334C17.5157 15.3334 18.5417 14.1022 18.5417 12.5834C18.5417 11.0646 17.5157 9.83337 16.25 9.83337C14.9844 9.83337 13.9583 11.0646 13.9583 12.5834C13.9583 14.1022 14.9844 15.3334 16.25 15.3334ZM12.125 19.9167C13.3907 19.9167 14.4167 18.6855 14.4167 17.1667C14.4167 15.6479 13.3907 14.4167 12.125 14.4167C10.8594 14.4167 9.83334 15.6479 9.83334 17.1667C9.83334 18.6855 10.8594 19.9167 12.125 19.9167ZM24.0417 12.5834C24.0417 14.1022 23.0157 15.3334 21.75 15.3334C20.4844 15.3334 19.4583 14.1022 19.4583 12.5834C19.4583 11.0646 20.4844 9.83337 21.75 9.83337C23.0157 9.83337 24.0417 11.0646 24.0417 12.5834ZM25.875 19.9167C27.1407 19.9167 28.1667 18.6855 28.1667 17.1667C28.1667 15.6479 27.1407 14.4167 25.875 14.4167C24.6094 14.4167 23.5833 15.6479 23.5833 17.1667C23.5833 18.6855 24.6094 19.9167 25.875 19.9167ZM24.0758 20.7718L24.0783 20.7738L24.0888 20.782C25.0907 21.5735 26.3333 22.5551 26.3333 24.7292C26.3333 26.6267 24.7933 28.1667 22.8958 28.1667C22.0342 28.1667 21.2825 27.7588 20.6179 27.3967C20.0496 27.085 19.5133 26.7917 19 26.7917C18.4867 26.7917 17.9504 27.085 17.3821 27.3967C16.7175 27.7588 15.9658 28.1667 15.1042 28.1667C13.2067 28.1667 11.6667 26.6267 11.6667 24.7292C11.6667 22.5448 12.9158 21.5638 13.9191 20.7758L13.9217 20.7738C13.933 20.7648 13.9442 20.7559 13.9555 20.7469C14.3692 20.4179 14.7576 20.1089 14.9896 19.7609C15.1565 19.5147 15.3043 19.2496 15.4609 18.969C15.4763 18.9413 15.4919 18.9135 15.5075 18.8855C16.1583 17.7075 16.9742 16.2455 19 16.2455C21.0236 16.2455 21.8353 17.7043 22.4903 18.8815L22.4925 18.8855C22.6667 19.1971 22.8317 19.4905 23.0104 19.7609C23.2483 20.1222 23.6505 20.438 24.0758 20.7718Z" fill="white"/>
</svg>
