<svg width="108" height="38" viewBox="0 0 108 38" fill="none" xmlns="http://www.w3.org/2000/svg">
<rect width="38" height="38" rx="19" fill="#3F3E3E"/>
<path fill-rule="evenodd" clip-rule="evenodd" d="M16.25 15.3334C17.5157 15.3334 18.5417 14.1022 18.5417 12.5834C18.5417 11.0646 17.5157 9.83337 16.25 9.83337C14.9844 9.83337 13.9583 11.0646 13.9583 12.5834C13.9583 14.1022 14.9844 15.3334 16.25 15.3334ZM12.125 19.9167C13.3907 19.9167 14.4167 18.6855 14.4167 17.1667C14.4167 15.6479 13.3907 14.4167 12.125 14.4167C10.8594 14.4167 9.83334 15.6479 9.83334 17.1667C9.83334 18.6855 10.8594 19.9167 12.125 19.9167ZM24.0417 12.5834C24.0417 14.1022 23.0157 15.3334 21.75 15.3334C20.4844 15.3334 19.4583 14.1022 19.4583 12.5834C19.4583 11.0646 20.4844 9.83337 21.75 9.83337C23.0157 9.83337 24.0417 11.0646 24.0417 12.5834ZM25.875 19.9167C27.1407 19.9167 28.1667 18.6855 28.1667 17.1667C28.1667 15.6479 27.1407 14.4167 25.875 14.4167C24.6094 14.4167 23.5833 15.6479 23.5833 17.1667C23.5833 18.6855 24.6094 19.9167 25.875 19.9167ZM24.0758 20.7718L24.0783 20.7738L24.0888 20.782C25.0907 21.5735 26.3333 22.5551 26.3333 24.7292C26.3333 26.6267 24.7933 28.1667 22.8958 28.1667C22.0342 28.1667 21.2825 27.7588 20.6179 27.3967C20.0496 27.085 19.5133 26.7917 19 26.7917C18.4867 26.7917 17.9504 27.085 17.3821 27.3967C16.7175 27.7588 15.9658 28.1667 15.1042 28.1667C13.2067 28.1667 11.6667 26.6267 11.6667 24.7292C11.6667 22.5448 12.9158 21.5638 13.9191 20.7758L13.9217 20.7738C13.933 20.7648 13.9442 20.7559 13.9555 20.7469C14.3692 20.4179 14.7576 20.1089 14.9896 19.7609C15.1565 19.5147 15.3043 19.2496 15.4609 18.969C15.4763 18.9413 15.4919 18.9135 15.5075 18.8855C16.1583 17.7075 16.9742 16.2455 19 16.2455C21.0236 16.2455 21.8353 17.7043 22.4903 18.8815L22.4925 18.8855C22.6667 19.1971 22.8317 19.4905 23.0104 19.7609C23.2483 20.1222 23.6505 20.438 24.0758 20.7718Z" fill="white"/>
<path d="M46.7773 28.5V26.5781L48.6172 26.2266V13.7227L46.7773 13.3711V11.4375H48.6172H54.8398C56.1289 11.4375 57.2344 11.6641 58.1562 12.1172C59.0859 12.5625 59.8008 13.1914 60.3008 14.0039C60.8008 14.8086 61.0508 15.7461 61.0508 16.8164C61.0508 17.8945 60.8008 18.8359 60.3008 19.6406C59.8008 20.4375 59.0859 21.0586 58.1562 21.5039C57.2344 21.9492 56.1289 22.1719 54.8398 22.1719H51.8047V26.2266L53.6445 26.5781V28.5H46.7773ZM51.8047 19.7109H54.8398C55.8398 19.7109 56.5938 19.4414 57.1016 18.9023C57.6094 18.3633 57.8633 17.6758 57.8633 16.8398C57.8633 15.9961 57.6094 15.2969 57.1016 14.7422C56.5938 14.1797 55.8398 13.8984 54.8398 13.8984H51.8047V19.7109ZM66.3711 28.7461C65.0977 28.7461 64.0938 28.4141 63.3594 27.75C62.6328 27.0781 62.2695 26.1602 62.2695 24.9961C62.2695 24.1992 62.4844 23.5 62.9141 22.8984C63.3516 22.2891 63.9922 21.8164 64.8359 21.4805C65.6875 21.1367 66.7227 20.9648 67.9414 20.9648H69.7461V19.9688C69.7461 19.3281 69.5547 18.8125 69.1719 18.4219C68.7969 18.0312 68.2422 17.8359 67.5078 17.8359C67.1094 17.8359 66.75 17.8867 66.4297 17.9883C66.1172 18.082 65.8359 18.2188 65.5859 18.3984L65.3164 20.0977H62.9961L62.9727 16.8867C63.6133 16.4961 64.3164 16.1836 65.082 15.9492C65.8555 15.707 66.7148 15.5859 67.6602 15.5859C69.293 15.5859 70.5781 15.9688 71.5156 16.7344C72.4609 17.4922 72.9336 18.582 72.9336 20.0039V25.4062C72.9336 25.5781 72.9336 25.7461 72.9336 25.9102C72.9414 26.0742 72.957 26.2344 72.9805 26.3906L74.2812 26.5781V28.5H70.2383C70.1523 28.2578 70.0703 28.0117 69.9922 27.7617C69.9219 27.5039 69.8711 27.2461 69.8398 26.9883C69.4258 27.5117 68.9297 27.9375 68.3516 28.2656C67.7812 28.5859 67.1211 28.7461 66.3711 28.7461ZM67.1562 26.3438C67.6953 26.3438 68.1992 26.2188 68.668 25.9688C69.1445 25.7188 69.5039 25.4023 69.7461 25.0195V22.957H67.9297C67.1094 22.957 66.4883 23.1484 66.0664 23.5312C65.6523 23.9062 65.4453 24.3516 65.4453 24.8672C65.4453 25.3359 65.5938 25.6992 65.8906 25.957C66.1875 26.2148 66.6094 26.3438 67.1562 26.3438ZM79.4727 28.5L76.4492 18.0234L74.9258 17.7539V15.8203H80.8672V17.7539L79.4844 18.0117L80.7734 23.2266L81.043 24.3164H81.1133L81.4766 23.2266L84.1016 15.8203H86.3281L88.8711 23.3086L89.2461 24.4922H89.3164L89.6797 23.3086L91.1328 18.0117L89.6328 17.7539V15.8203H95.457V17.7539L93.9922 18.0234L90.7578 28.5H88.0156L85.6484 21.9375L85.1914 20.4023L85.1211 20.4141L84.6758 21.9492L82.2852 28.5H79.4727ZM101.984 28.7461C101.055 28.7461 100.188 28.6602 99.3828 28.4883C98.5859 28.3086 97.8047 28.0469 97.0391 27.7031L97.0039 24.2344H99.2539L99.6992 26.0625C100.004 26.2031 100.324 26.3125 100.66 26.3906C100.996 26.4688 101.375 26.5078 101.797 26.5078C102.602 26.5078 103.168 26.375 103.496 26.1094C103.832 25.8359 104 25.4961 104 25.0898C104 24.6992 103.824 24.3633 103.473 24.082C103.121 23.793 102.441 23.543 101.434 23.332C99.9258 23.0117 98.8164 22.5312 98.1055 21.8906C97.3945 21.2422 97.0391 20.4141 97.0391 19.4062C97.0391 18.7031 97.2188 18.0664 97.5781 17.4961C97.9453 16.9258 98.4922 16.4688 99.2188 16.125C99.9453 15.7734 100.855 15.5977 101.949 15.5977C102.91 15.5977 103.773 15.6953 104.539 15.8906C105.312 16.0859 105.965 16.3359 106.496 16.6406L106.555 19.9922H104.316L103.953 18.3281C103.727 18.1641 103.461 18.0391 103.156 17.9531C102.852 17.8594 102.508 17.8125 102.125 17.8125C101.5 17.8125 101.012 17.9453 100.66 18.2109C100.316 18.4766 100.145 18.8125 100.145 19.2188C100.145 19.4531 100.203 19.668 100.32 19.8633C100.438 20.0586 100.664 20.2422 101 20.4141C101.344 20.5781 101.844 20.7344 102.5 20.8828C104.109 21.25 105.27 21.7383 105.98 22.3477C106.699 22.957 107.059 23.7852 107.059 24.832C107.059 25.9883 106.637 26.9297 105.793 27.6562C104.957 28.3828 103.688 28.7461 101.984 28.7461Z" fill="black"/>
</svg>
