<svg width="14" height="14" viewBox="0 0 14 14" fill="none" xmlns="http://www.w3.org/2000/svg">
<path fill-rule="evenodd" clip-rule="evenodd" d="M4.99998 4.33337C5.92045 4.33337 6.66665 3.43794 6.66665 2.33337C6.66665 1.2288 5.92045 0.333374 4.99998 0.333374C4.0795 0.333374 3.33331 1.2288 3.33331 2.33337C3.33331 3.43794 4.0795 4.33337 4.99998 4.33337ZM1.99998 7.66671C2.92045 7.66671 3.66665 6.77128 3.66665 5.66671C3.66665 4.56214 2.92045 3.66671 1.99998 3.66671C1.07951 3.66671 0.333313 4.56214 0.333313 5.66671C0.333313 6.77128 1.07951 7.66671 1.99998 7.66671ZM10.6666 2.33337C10.6666 3.43794 9.92045 4.33337 8.99998 4.33337C8.07951 4.33337 7.33331 3.43794 7.33331 2.33337C7.33331 1.2288 8.07951 0.333374 8.99998 0.333374C9.92045 0.333374 10.6666 1.2288 10.6666 2.33337ZM12 7.66671C12.9205 7.66671 13.6666 6.77128 13.6666 5.66671C13.6666 4.56214 12.9205 3.66671 12 3.66671C11.0795 3.66671 10.3333 4.56214 10.3333 5.66671C10.3333 6.77128 11.0795 7.66671 12 7.66671ZM10.6915 8.28861L10.6933 8.29004L10.7009 8.29602C11.4296 8.87164 12.3333 9.58552 12.3333 11.1667C12.3333 12.5467 11.2133 13.6667 9.83331 13.6667C9.20665 13.6667 8.65998 13.37 8.17665 13.1067C7.76331 12.88 7.37331 12.6667 6.99998 12.6667C6.62665 12.6667 6.23665 12.88 5.82331 13.1067C5.33998 13.37 4.79331 13.6667 4.16665 13.6667C2.78665 13.6667 1.66665 12.5467 1.66665 11.1667C1.66665 9.57807 2.57508 8.8646 3.30476 8.29152L3.30665 8.29004C3.31485 8.28351 3.32304 8.277 3.33122 8.27049C3.63208 8.03118 3.91457 7.80649 4.08331 7.55337C4.20467 7.37437 4.31222 7.18157 4.42607 6.97747C4.4373 6.95732 4.4486 6.93707 4.45998 6.9167C4.93331 6.06004 5.52665 4.9967 6.99998 4.9967C8.47166 4.9967 9.06199 6.05765 9.53837 6.91381L9.53998 6.9167C9.66665 7.14337 9.78665 7.3567 9.91665 7.55337C10.0896 7.81619 10.3822 8.0458 10.6915 8.28861Z" fill="#FF7E56"/>
</svg>
