<svg width="32" height="32" viewBox="0 0 32 32" fill="none" xmlns="http://www.w3.org/2000/svg">
<path fill-rule="evenodd" clip-rule="evenodd" d="M8.66669 6.66666C8.66669 4.70596 9.93975 2.66666 12 2.66666C14.0603 2.66666 15.3334 4.70596 15.3334 6.66666C15.3334 8.62735 14.0603 10.6667 12 10.6667C9.93975 10.6667 8.66669 8.62735 8.66669 6.66666ZM12 4.66666C11.483 4.66666 10.6667 5.31364 10.6667 6.66666C10.6667 8.01967 11.483 8.66666 12 8.66666C12.5171 8.66666 13.3334 8.01967 13.3334 6.66666C13.3334 5.31364 12.5171 4.66666 12 4.66666Z" fill="#A8AAB2"/>
<path fill-rule="evenodd" clip-rule="evenodd" d="M2.66669 13.3333C2.66669 11.3726 3.93975 9.33332 6.00002 9.33332C8.06029 9.33332 9.33335 11.3726 9.33335 13.3333C9.33335 15.294 8.06029 17.3333 6.00002 17.3333C3.93975 17.3333 2.66669 15.294 2.66669 13.3333ZM6.00002 11.3333C5.48296 11.3333 4.66669 11.9803 4.66669 13.3333C4.66669 14.6863 5.48296 15.3333 6.00002 15.3333C6.51708 15.3333 7.33335 14.6863 7.33335 13.3333C7.33335 11.9803 6.51708 11.3333 6.00002 11.3333Z" fill="#A8AAB2"/>
<path fill-rule="evenodd" clip-rule="evenodd" d="M20 2.66666C17.9398 2.66666 16.6667 4.70596 16.6667 6.66666C16.6667 8.62735 17.9398 10.6667 20 10.6667C22.0603 10.6667 23.3334 8.62735 23.3334 6.66666C23.3334 4.70596 22.0603 2.66666 20 2.66666ZM18.6667 6.66666C18.6667 5.31364 19.483 4.66666 20 4.66666C20.5171 4.66666 21.3334 5.31364 21.3334 6.66666C21.3334 8.01967 20.5171 8.66666 20 8.66666C19.483 8.66666 18.6667 8.01967 18.6667 6.66666Z" fill="#A8AAB2"/>
<path fill-rule="evenodd" clip-rule="evenodd" d="M22.6667 13.3333C22.6667 11.3726 23.9398 9.33332 26 9.33332C28.0603 9.33332 29.3334 11.3726 29.3334 13.3333C29.3334 15.294 28.0603 17.3333 26 17.3333C23.9398 17.3333 22.6667 15.294 22.6667 13.3333ZM26 11.3333C25.483 11.3333 24.6667 11.9803 24.6667 13.3333C24.6667 14.6863 25.483 15.3333 26 15.3333C26.5171 15.3333 27.3334 14.6863 27.3334 13.3333C27.3334 11.9803 26.5171 11.3333 26 11.3333Z" fill="#A8AAB2"/>
<path fill-rule="evenodd" clip-rule="evenodd" d="M16 12C14.1178 12 12.9322 12.8739 12.0837 13.9719C11.6796 14.4948 11.3462 15.0739 11.049 15.6059L10.9156 15.8454C10.6612 16.3028 10.4287 16.7209 10.168 17.112C9.92158 17.4815 9.56103 17.8208 9.07776 18.2135C8.9475 18.3193 8.80278 18.433 8.64999 18.5531C8.28067 18.8434 7.86399 19.1709 7.49096 19.5128C6.34772 20.5608 5.33335 21.9772 5.33335 24.3333C5.33335 27.0923 7.5744 29.3333 10.3334 29.3333C11.5918 29.3333 12.7054 28.7249 13.5603 28.2578L13.6455 28.2112C14.6134 27.6833 15.3007 27.3333 16 27.3333C16.6993 27.3333 17.3866 27.6833 18.3545 28.2112L18.4398 28.2578C19.2946 28.7249 20.4082 29.3333 21.6667 29.3333C24.4256 29.3333 26.6667 27.0923 26.6667 24.3333C26.6667 21.9772 25.6523 20.5608 24.5091 19.5128C24.1361 19.1709 23.7197 18.8437 23.3504 18.5534C23.1975 18.4332 23.0526 18.3194 22.9223 18.2135C22.439 17.8208 22.0785 17.4815 21.8321 17.112C21.5713 16.7209 21.3388 16.3027 21.0845 15.8453L20.9511 15.6059C20.6538 15.0739 20.3204 14.4948 19.9163 13.9719C19.0678 12.8739 17.8822 12 16 12ZM11.8321 18.2214C12.1415 17.7573 12.4181 17.2592 12.6704 16.8052C12.7125 16.7293 12.754 16.6546 12.7948 16.5816C13.0913 16.051 13.3621 15.5885 13.6663 15.1948C14.2345 14.4595 14.8822 14 16 14C17.1178 14 17.7655 14.4595 18.3337 15.1948C18.638 15.5885 18.9087 16.051 19.2052 16.5816C19.246 16.6547 19.2875 16.7293 19.3297 16.8053C19.5819 17.2593 19.8586 17.7573 20.168 18.2214C20.5882 18.8518 21.1444 19.3458 21.6611 19.7657C21.8448 19.9149 22.0191 20.0517 22.1872 20.1837C22.5269 20.4504 22.8416 20.6974 23.1576 20.9871C24.0144 21.7725 24.6667 22.6894 24.6667 24.3333C24.6667 25.9877 23.3211 27.3333 21.6667 27.3333C20.9674 27.3333 20.2801 26.9834 19.3122 26.4554L19.2269 26.4089C18.3721 25.9418 17.2585 25.3333 16 25.3333C14.7416 25.3333 13.628 25.9418 12.7731 26.4089L12.6878 26.4554C11.72 26.9834 11.0326 27.3333 10.3334 27.3333C8.67897 27.3333 7.33335 25.9877 7.33335 24.3333C7.33335 22.6894 7.98566 21.7725 8.84241 20.9871C9.15847 20.6974 9.47301 20.4505 9.81269 20.1839C9.98087 20.0518 10.1552 19.915 10.3389 19.7657C10.8557 19.3458 11.4118 18.8518 11.8321 18.2214Z" fill="#A8AAB2"/>
</svg>
