<svg width="16" height="16" viewBox="0 0 16 16" fill="none" xmlns="http://www.w3.org/2000/svg">
<path fill-rule="evenodd" clip-rule="evenodd" d="M11.3333 4.66671C11.3333 6.50766 9.84093 8.00004 7.99998 8.00004C6.15903 8.00004 4.66665 6.50766 4.66665 4.66671C4.66665 2.82576 6.15903 1.33337 7.99998 1.33337C9.84093 1.33337 11.3333 2.82576 11.3333 4.66671ZM13.3865 11.24L13.6439 12.0825C14.0364 13.3677 13.075 14.6667 11.7311 14.6667H4.26199C2.91809 14.6667 1.95664 13.3677 2.34923 12.0825L2.60654 11.24C3.01654 9.90004 4.23321 9.00004 5.63654 9.00004H10.3565C11.7599 9.00004 12.9765 9.90004 13.3865 11.24Z" fill="#3F3E3E"/>
</svg>
